<?xml version="1.0" standalone="no"?>
<!DOCTYPE svg PUBLIC "-//W3C//DTD SVG 20010904//EN"
 "http://www.w3.org/TR/2001/REC-SVG-20010904/DTD/svg10.dtd">
<svg version="1.0" xmlns="http://www.w3.org/2000/svg"
 width="512.000000pt" height="512.000000pt" viewBox="0 0 512.000000 512.000000"
 preserveAspectRatio="xMidYMid meet">
<metadata>
Created by potrace 1.14, written by Peter Selinger 2001-2017
</metadata>
<g transform="translate(0.000000,512.000000) scale(0.100000,-0.100000)"
fill="#000000" stroke="none">
<path d="M265 5095 l-25 -24 0 -2033 0 -2033 503 -502 502 -503 1418 0 1417 0
0 80 0 80 -1360 0 -1360 0 0 455 0 456 -25 24 -24 25 -456 0 -455 0 0 1920 0
1920 1920 0 1920 0 0 -1840 0 -1840 80 0 80 0 0 1895 0 1896 -25 24 -24 25
-2031 0 -2031 0 -24 -25z"/>
<path d="M1743 4577 l-143 -143 0 -113 0 -114 74 -75 74 -76 -137 -67 c-74
-37 -136 -67 -137 -66 0 1 -9 17 -20 35 l-20 33 -89 -63 c-756 -538 -931
-1595 -388 -2350 425 -591 1192 -840 1888 -612 106 35 285 120 375 179 l73 47
84 -84 c83 -83 83 -83 71 -116 -10 -25 -10 -39 0 -64 11 -29 10 -34 -15 -60
l-27 -29 379 -379 380 -380 59 0 c55 0 62 -3 102 -40 78 -72 75 -73 331 183
205 204 223 225 223 257 0 32 -31 65 -463 497 -525 525 -489 499 -573 421
l-45 -42 -80 80 -80 81 65 97 c405 597 391 1367 -36 1948 -77 105 -260 286
-364 361 -45 31 -86 57 -92 57 -6 0 -19 -14 -29 -30 -9 -17 -20 -29 -23 -28
-183 90 -229 114 -229 121 -1 4 24 44 54 90 76 114 73 147 -18 193 -29 15 -53
28 -55 29 -2 2 26 62 62 134 36 72 66 142 66 156 0 14 -11 37 -25 50 l-24 25
-553 0 -552 0 -143 -143z m502 -657 l160 -160 158 0 159 0 -3 -168 -4 -168
-37 -76 c-45 -91 -103 -147 -196 -191 -61 -29 -76 -32 -162 -32 -86 0 -101 3
-162 32 -93 44 -151 100 -196 191 l-37 76 -3 249 -4 250 78 78 c43 44 81 79
84 79 3 0 77 -72 165 -160z m-720 -227 c0 -38 3 -79 7 -93 6 -22 -2 -33 -67
-93 l-73 -67 -32 26 -31 26 -34 -38 c-58 -65 -162 -225 -204 -315 -49 -105
-85 -215 -108 -327 -25 -124 -24 -385 1 -507 116 -559 520 -961 1087 -1082
118 -25 380 -24 504 1 463 96 833 402 1006 831 169 420 116 903 -140 1272 -34
48 -77 106 -96 128 l-34 40 -29 -28 -30 -29 -62 59 c-34 32 -68 61 -75 66 -10
5 -11 15 -3 44 5 21 8 63 6 95 -2 32 -2 58 1 58 17 0 164 -126 243 -208 188
-197 306 -418 369 -691 32 -137 37 -384 11 -536 -53 -310 -181 -555 -406 -781
-226 -226 -470 -352 -781 -406 -152 -26 -399 -21 -536 11 -185 42 -368 121
-519 224 -97 66 -301 270 -367 367 -105 155 -187 348 -229 540 -27 121 -27
439 0 560 60 277 180 508 366 704 74 78 234 216 250 216 3 0 5 -30 5 -67z
m365 -1025 c18 -73 39 -143 46 -155 21 -33 55 -37 134 -18 39 10 72 16 74 14
2 -2 -12 -155 -31 -339 -19 -184 -32 -344 -29 -355 3 -11 50 -64 104 -118 134
-131 132 -131 269 6 85 85 103 108 103 133 -1 16 -15 174 -33 352 -18 177 -29
322 -25 322 5 0 38 -7 73 -16 73 -19 109 -13 129 19 7 12 28 82 46 155 l32
132 112 0 111 0 137 -137 138 -138 0 -341 0 -341 -37 -48 -38 -48 -3 367 -2
366 -120 0 -120 0 0 -469 0 -470 -114 -56 c-74 -36 -156 -67 -233 -87 -110
-29 -129 -31 -293 -31 -164 0 -182 2 -295 31 -79 21 -158 51 -232 88 l-113 56
0 469 0 469 -120 0 -120 0 -2 -366 -3 -367 -37 48 -38 48 0 341 0 341 137 137
138 138 111 0 112 0 32 -132z m1720 -1353 l74 -75 -22 -22 -22 -23 -77 77
c-76 76 -77 77 -58 98 10 11 21 20 24 20 4 0 40 -34 81 -75z m815 -575 l260
-260 -73 -72 -72 -73 -262 262 -263 263 70 70 c38 38 72 70 75 70 3 0 122
-117 265 -260z"/>
</g>
</svg>
